<svg width="558" height="558" viewBox="0 0 558 558" fill="none" xmlns="http://www.w3.org/2000/svg">
<g clip-path="url(#clip0_1_52)">
<rect width="558" height="558" rx="279" fill="#18181B"/>
<path d="M246.4 373.5C223.067 373.5 204.4 366.967 190.4 353.9C176.633 340.833 169.75 322.867 169.75 300V247.5C169.75 224.633 176.633 206.667 190.4 193.6C204.4 180.533 223.067 174 246.4 174C268.567 174 286.417 179.95 299.95 191.85C313.483 203.75 320.6 219.967 321.3 240.5H289.8C289.1 228.133 284.9 218.683 277.2 212.15C269.733 205.383 259.467 202 246.4 202C232.633 202 221.667 205.967 213.5 213.9C205.333 221.6 201.25 232.683 201.25 247.15V300C201.25 314.467 205.333 325.667 213.5 333.6C221.667 341.533 232.633 345.5 246.4 345.5C259.467 345.5 269.733 342.117 277.2 335.35C284.9 328.583 289.1 319.133 289.8 307H321.3C320.6 327.533 313.483 343.75 299.95 355.65C286.417 367.55 268.567 373.5 246.4 373.5ZM384.863 373.5C375.997 373.5 368.88 370.933 363.513 365.8C358.38 360.667 355.813 353.783 355.813 345.15C355.813 336.05 358.38 328.817 363.513 323.45C368.88 318.083 375.997 315.4 384.863 315.4C393.73 315.4 400.73 318.083 405.863 323.45C411.23 328.817 413.913 336.05 413.913 345.15C413.913 353.783 411.23 360.667 405.863 365.8C400.73 370.933 393.73 373.5 384.863 373.5Z" fill="white"/>
</g>
<defs>
<clipPath id="clip0_1_52">
<rect width="558" height="558" rx="71" fill="white"/>
</clipPath>
</defs>
</svg>
